Coordinates
version=1
nRows=13
nColumns=34
inDegrees=yes

Units are S.I. units (second, meters, Newtons, ...)
If the header above contains a line with 'inDegrees', this indicates whether rotational values are in degrees (yes) or radians (no).

endheader
time	pelvis_tilt	pelvis_list	pelvis_rotation	pelvis_tx	pelvis_ty	pelvis_tz	hip_flexion_r	hip_adduction_r	hip_rotation_r	knee_angle_r	ankle_angle_r	subtalar_angle_r	mtp_angle_r	hip_flexion_l	hip_adduction_l	hip_rotation_l	knee_angle_l	ankle_angle_l	subtalar_angle_l	mtp_angle_l	lumbar_extension	lumbar_bending	lumbar_rotation	arm_flex_r	arm_add_r	arm_rot_r	elbow_flex_r	pro_sup_r	arm_flex_l	arm_add_l	arm_rot_l	elbow_flex_l	pro_sup_l
      1.88333330	      0.34044954	     -0.01352705	     -8.04248229	     -0.04507341	      1.26418720	     -0.09012649	     -3.81455937	     -0.66256868	     -0.18406319	      1.00075891	      7.54280202	     -0.19958206	      0.00000000	     -6.22821582	     -0.67091759	      3.96214497	      0.00000000	      5.36240674	     -0.79893081	      0.00000000	     -3.61815387	      2.39940082	      1.26214156	      5.62326603	     -4.84752594	     18.18858607	     16.85562734	     85.13475392	      0.43742763	     -4.98286677	     18.80072937	     19.01596148	     81.71352379
      1.90000000	      0.34438120	     -0.02513496	     -8.05123701	     -0.04584756	      1.26329062	     -0.09033838	     -3.82297229	     -0.66224333	     -0.19656283	      1.00117311	      7.53954058	     -0.20491837	      0.00000000	     -6.20387925	     -0.65859899	      3.96659771	      0.00000000	      5.36744161	     -0.79617332	      0.00000000	     -3.62723979	      2.39794462	      1.26207591	      5.62390188	     -4.85068557	     18.18894608	     16.85369020	     85.13661580	      0.44415886	     -4.98098363	     18.80208453	     19.01681284	     81.71470927
      1.91666670	      0.36026585	     -0.01487284	     -8.03535297	     -0.04791095	      1.26110878	     -0.08906798	     -3.78490115	     -0.64646198	     -0.20586572	      0.97479249	      7.54092413	     -0.20941072	      0.00000000	     -6.21352425	     -0.64233282	      3.96705482	      0.00000000	      5.37634455	     -0.79679721	      0.00000000	     -3.64074807	      2.39974555	      1.25996625	      5.62258523	     -4.85592516	     18.18925627	     16.85124163	     85.13854028	      0.45267774	     -4.97722382	     18.80356047	     19.01850937	     81.71593377
      1.93333330	      0.30558092	      0.04047319	     -7.92143094	     -0.04817112	      1.25956652	     -0.08983466	     -3.64162595	     -0.69310086	     -0.52908478	      1.01833716	      7.51730304	     -0.40970466	      0.00000000	     -6.11066326	     -0.60936191	      4.10975880	      0.00000000	      5.67522038	     -0.76004719	      0.00000000	     -3.93611158	      2.29922304	      1.32755577	      5.75155707	     -4.88812543	     18.22263736	     16.86355782	     85.24264741	      0.80917913	     -5.00447809	     18.85978743	     19.08327039	     81.77578363
      1.95000000	      0.30435634	      0.05234345	     -7.90884630	     -0.04811044	      1.26170576	     -0.08962355	     -3.61138641	     -0.68785961	     -0.52719276	      1.00226045	      7.52040900	     -0.41012501	      0.00000000	     -6.13212033	     -0.61297841	      4.10975859	      0.00000000	      5.67780151	     -0.76095550	      0.00000000	     -3.94063223	      2.29928345	      1.32913934	      5.75170987	     -4.88836555	     18.22314623	     16.86375286	     85.24407382	      0.80855908	     -5.00411850	     18.86092720	     19.08291270	     81.77665631
      1.96666670	      0.29986474	      0.07241236	     -7.87418021	     -0.04763994	      1.25827518	     -0.08908227	     -3.57857441	     -0.67324268	     -0.52013067	      0.98987258	      7.52785479	     -0.40988377	      0.00000000	     -6.17058572	     -0.61469290	      4.10758066	      0.00000000	      5.68766014	     -0.76563021	      0.00000000	     -3.95359972	      2.29851290	      1.33516598	      5.75742474	     -4.88797303	     18.22405800	     16.86569016	     85.24645164	      0.80985240	     -5.00481753	     18.86247761	     19.08302102	     81.77801130
      1.98333330	      0.27730566	      0.09298900	     -7.76936381	     -0.04699082	      1.26196144	     -0.08905746	     -3.55815566	     -0.67073468	     -0.48642799	      1.01864073	      7.56139949	     -0.41024780	      0.00000000	     -6.16378297	     -0.63758899	      4.10820509	      0.00000000	      5.73706969	     -0.78500845	      0.00000000	     -3.99346857	      2.28418420	      1.36379724	      5.77740283	     -4.87767034	     18.22933463	     16.87600608	     85.25656947	      0.81458140	     -5.01369566	     18.86807621	     19.08539926	     81.78343254
      2.00000000	      0.25850424	      0.10096963	     -7.76891689	     -0.04696756	      1.26601972	     -0.08900329	     -3.55732279	     -0.67482485	     -0.48637249	      1.01953823	      7.56299444	     -0.41132570	      0.00000000	     -6.16726885	     -0.64567086	      4.10845166	      0.00000000	      5.73916040	     -0.78612811	      0.00000000	     -3.99388956	      2.28441851	      1.36394008	      5.77767118	     -4.87763744	     18.22951812	     16.87630731	     85.25693805	      0.81583180	     -5.01409552	     18.86823077	     19.08592948	     81.78363132
      2.01666670	      0.24308434	      0.11472445	     -7.76277853	     -0.04639446	      1.26406553	     -0.08905710	     -3.55125824	     -0.67426789	     -0.48418803	      1.03089563	      7.56715095	     -0.41275998	      0.00000000	     -6.17987763	     -0.64840397	      4.11033032	      0.00000000	      5.74586093	     -0.78904779	      0.00000000	     -4.01165379	      2.28545155	      1.36548973	      5.77707796	     -4.87315700	     18.23150693	     16.87688994	     85.25966294	      0.82455449	     -5.01593439	     18.86957177	     19.08870670	     81.78509037
      2.03333330	      0.23665899	      0.12074285	     -7.75584240	     -0.04742678	      1.26473030	     -0.08933862	     -3.53661321	     -0.67131858	     -0.48207837	      1.02753165	      7.57008794	     -0.41282690	      0.00000000	     -6.19094910	     -0.64532253	      4.11105311	      0.00000000	      5.74894799	     -0.79019274	      0.00000000	     -4.01786739	      2.28588360	      1.36682592	      5.77518707	     -4.87047216	     18.23256010	     16.87682714	     85.26089936	      0.82543343	     -5.01629133	     18.87039613	     19.08938991	     81.78577696
      2.05000000	      0.22487821	      0.11584731	     -7.75960769	     -0.04541560	      1.26282286	     -0.08965316	     -3.54710391	     -0.68025448	     -0.48090775	      1.04011409	      7.57194543	     -0.41367370	      0.00000000	     -6.17612973	     -0.63950167	      4.11135331	      0.00000000	      5.75194552	     -0.79174241	      0.00000000	     -4.03756483	      2.28623333	      1.36638196	      5.77472960	     -4.86575352	     18.23409294	     16.87684085	     85.26274765	      0.83309422	     -5.01585270	     18.87159541	     19.09179440	     81.78682719
      2.06666670	      0.14690765	      0.16771844	     -7.74351008	     -0.04568994	      1.26212470	     -0.08948430	     -3.48442383	     -0.73976905	     -0.49043057	      1.05407455	      7.60491081	     -0.43729279	      0.00000000	     -6.08979835	     -0.58322375	      4.08462547	      0.00000000	      5.80721826	     -0.83360183	      0.00000000	     -4.23304519	      2.29641926	      1.34784712	      5.70933266	     -4.83634310	     18.25205677	     16.86070441	     85.28451530	      0.86532375	     -4.98613451	     18.89231066	     19.11230300	     81.80049459
      2.08333330	      0.11089450	      0.18094588	     -7.73786643	     -0.04518504	      1.26083041	     -0.08871610	     -3.52793179	     -0.72948551	     -0.48596576	      1.08572604	      7.60483919	     -0.43557539	      0.00000000	     -6.07998382	     -0.57879657	      4.08686580	      0.00000000	      5.80805428	     -0.83441541	      0.00000000	     -4.23768979	      2.29265689	      1.35123356	      5.71563840	     -4.83764079	     18.25280661	     16.86285745	     85.28639734	      0.86877857	     -4.98555326	     18.89397072	     19.11471022	     81.80174247
